<?xml version="1.0" encoding="utf-8"?>
<!-- Generator: Adobe Illustrator 24.1.3, SVG Export Plug-In . SVG Version: 6.00 Build 0)  -->
<svg version="1.1" xmlns="http://www.w3.org/2000/svg" xmlns:xlink="http://www.w3.org/1999/xlink" x="0px" y="0px" width="32px"
	 height="32px" viewBox="0 0 32 32" enable-background="new 0 0 32 32" xml:space="preserve">
<g id="jup_x5F_on" display="none">
	<path display="inline" fill="#F4F4F4" stroke="#F4F4F4" stroke-width="0.25" stroke-miterlimit="10" d="M16,16"/>
	<path display="inline" fill="#F4F4F4" stroke="#F4F4F4" stroke-width="0.25" stroke-miterlimit="10" d="M28.2,23.5h-3.9V1h-0.8
		v22.5H9c4.2-1.7,7.2-5.9,7.2-10.7C16.2,6.4,11,1.3,4.6,1.3v0.8c5.9,0,10.7,4.8,10.7,10.7S10.5,23.5,4.6,23.5H3.8v0.8h19.7V31h0.8
		v-6.6h3.9V23.5z"/>
</g>
<g id="eur_x5F_on" display="none">
	<polygon display="inline" fill="#F4F4F4" stroke="#F4F4F4" stroke-width="0.25" stroke-miterlimit="10" points="28.3,1.8 28.3,1 
		3.7,1 3.7,24 22.4,24 22.4,31 23.2,31 23.2,24 28.3,24 28.3,23.2 23.2,23.2 23.2,17 22.4,17 22.4,23.2 4.6,23.2 4.6,8.3 18,8.3 
		18,7.5 4.6,7.5 4.6,1.8 	"/>
</g>
<g id="cal_x5F_on">
	<polygon fill="#F4F4F4" stroke="#F4F4F4" stroke-width="0.25" stroke-miterlimit="10" points="26.7,1.6 26.1,1 6.2,20.9 6.2,1.3 
		5.3,1.3 5.3,30.4 6.2,30.4 6.2,22.1 11.6,16.7 20.4,25.5 15.8,30.1 16.4,30.6 21,26.1 25.9,31 26.4,30.4 21.5,25.5 26.1,20.9 
		25.6,20.3 21,24.9 12.1,16.1 	"/>
</g>
<g id="gan_x5F_on" display="none">
	<polygon display="inline" fill="#F4F4F4" stroke="#F4F4F4" stroke-width="0.25" stroke-miterlimit="10" points="6.8,1 6.8,23.2 
		0.2,23.2 0.2,24 6.8,24 6.8,31 7.6,31 7.6,24 14.2,24 14.2,23.2 7.6,23.2 7.6,1.8 30.9,1.8 30.9,10.6 31.8,10.6 31.8,1 	"/>
</g>
<g id="io_x5F_on" display="none">
	<polygon display="inline" fill="#F4F4F4" stroke="#F4F4F4" stroke-width="0.25" stroke-miterlimit="10" points="28.2,23.3 
		28.2,22.5 16.4,22.5 16.4,1.9 23.3,1.9 23.3,1 8.8,1 8.8,1.9 15.6,1.9 15.6,22.5 3.8,22.5 3.8,23.3 15.6,23.3 15.6,30.1 8.8,30.1 
		8.8,31 23.3,31 23.3,30.1 16.4,30.1 16.4,23.3 	"/>
</g>
<g id="jup_x5F_off" display="none">
	<path display="inline" fill="none" stroke="#F4F4F4" stroke-width="0.25" stroke-miterlimit="10" d="M16,16"/>
	<path display="inline" fill="none" stroke="#F4F4F4" stroke-width="0.25" stroke-miterlimit="10" d="M28.2,23.5h-3.9V1h-0.8v22.5H9
		c4.2-1.7,7.2-5.9,7.2-10.7C16.2,6.4,11,1.3,4.6,1.3v0.8c5.9,0,10.7,4.8,10.7,10.7S10.5,23.5,4.6,23.5H3.8v0.8h19.7V31h0.8v-6.6h3.9
		V23.5z"/>
</g>
<g id="eur_x5F_off" display="none">
	<polygon display="inline" fill="none" stroke="#F4F4F4" stroke-width="0.25" stroke-miterlimit="10" points="28.3,1.8 28.3,1 
		3.7,1 3.7,24 22.4,24 22.4,31 23.2,31 23.2,24 28.3,24 28.3,23.2 23.2,23.2 23.2,17 22.4,17 22.4,23.2 4.6,23.2 4.6,8.3 18,8.3 
		18,7.5 4.6,7.5 4.6,1.8 	"/>
</g>
<g id="cal_x5F_off" display="none">
	<polygon display="inline" fill="none" stroke="#F4F4F4" stroke-width="0.25" stroke-miterlimit="10" points="26.7,1.6 26.1,1 
		6.2,20.9 6.2,1.3 5.3,1.3 5.3,30.4 6.2,30.4 6.2,22.1 11.6,16.7 20.4,25.5 15.8,30.1 16.4,30.6 21,26.1 25.9,31 26.4,30.4 
		21.5,25.5 26.1,20.9 25.6,20.3 21,24.9 12.1,16.1 	"/>
</g>
<g id="gan_x5F_off" display="none">
	<polygon display="inline" fill="none" stroke="#F4F4F4" stroke-width="0.25" stroke-miterlimit="10" points="6.8,1 6.8,23.2 
		0.2,23.2 0.2,24 6.8,24 6.8,31 7.6,31 7.6,24 14.2,24 14.2,23.2 7.6,23.2 7.6,1.8 30.9,1.8 30.9,10.6 31.8,10.6 31.8,1 	"/>
</g>
<g id="io_x5F_of" display="none">
	<polygon display="inline" fill="none" stroke="#F4F4F4" stroke-width="0.25" stroke-miterlimit="10" points="28.2,23.3 28.2,22.5 
		16.4,22.5 16.4,1.9 23.3,1.9 23.3,1 8.8,1 8.8,1.9 15.6,1.9 15.6,22.5 3.8,22.5 3.8,23.3 15.6,23.3 15.6,30.1 8.8,30.1 8.8,31 
		23.3,31 23.3,30.1 16.4,30.1 16.4,23.3 	"/>
</g>
</svg>
