<?xml version="1.0" encoding="utf-8"?>
<!-- Generator: Adobe Illustrator 24.1.3, SVG Export Plug-In . SVG Version: 6.00 Build 0)  -->
<svg version="1.1" xmlns="http://www.w3.org/2000/svg" xmlns:xlink="http://www.w3.org/1999/xlink" x="0px" y="0px" width="32px"
	 height="32px" viewBox="0 0 32 32" enable-background="new 0 0 32 32" xml:space="preserve">
<g id="j_x5F_on" display="none">
	<path display="inline" fill="#F4F4F4" d="M28.2,23.5h-3.9V1h-0.8v22.5H9c4.2-1.7,7.2-5.9,7.2-10.7C16.2,6.4,11,1.3,4.6,1.3v0.8
		c5.9,0,10.7,4.8,10.7,10.7S10.5,23.5,4.6,23.5H3.8v0.8h19.7V31h0.8v-6.6h3.9V23.5z"/>
</g>
<g id="j_x5F_off">
	<path fill="#F4F4F4" d="M24.1,1.4v21.9h3.8v0.8h-3.8v6.4h-0.8v-6.4H4.1v-0.8h0.8c5.7,0,10.4-4.7,10.4-10.4S10.7,2.5,4.9,2.5V1.7
		c6.2,0,11.2,5,11.2,11.2c0,4.7-2.9,8.7-7,10.4h14.1V1.4H24.1 M24.5,1h-0.4h-0.8h-0.4v0.4v21.5h-12c1.4-0.9,2.7-2,3.6-3.4
		c1.3-1.9,2-4.2,2-6.6c0-6.4-5.2-11.7-11.7-11.7H4.5v0.4v0.8v0.4h0.4c5.5,0,10,4.5,10,10s-4.5,10-10,10H4.1H3.7v0.4v0.8v0.4h0.4
		h18.8v6V31h0.4h0.8h0.4v-0.4v-6h3.4h0.4v-0.4v-0.8v-0.4h-0.4h-3.4V1.4V1L24.5,1z"/>
</g>
</svg>
